<svg width="194" height="54" viewBox="0 0 194 54" fill="none" xmlns="http://www.w3.org/2000/svg">
<rect x="5.4563" y="6.97189" width="180.056" height="40.9219" fill="white"/>
<path fill-rule="evenodd" clip-rule="evenodd" d="M0 26.675V53.35H97H194V26.675V0H97H0V26.675ZM64.2625 12.7347C67.1502 13.6944 68.5349 15.0676 69.0541 17.4867C69.303 18.6461 69.3129 19.8864 69.0904 22.0813L68.9165 23.7953H67.4464C66.6378 23.7953 65.3515 23.8397 64.5878 23.8938L63.1993 23.9925L64.2234 25.0075C66.0678 26.8355 66.7049 28.2275 66.805 30.6459C66.8633 32.0541 66.8216 32.4436 66.4883 33.605C65.6601 36.4926 64.6153 38.1054 62.689 39.4702C61.0935 40.6006 59.6545 41.1903 57.4736 41.6077C54.3114 42.2127 51.05 41.4777 49.3488 39.7764C48.0544 38.482 47.3592 36.3799 47.5341 34.289C47.6021 33.4759 47.4989 33.6704 45.9463 37.2844L44.2858 41.1492L39.1938 41.1891L34.1016 41.2291V39.7359C34.1016 38.9146 34.0561 36.7838 34.0006 35.0008L33.8997 31.7589L33.565 33.0438C32.7875 36.0308 31.9292 37.4825 30.0611 38.9702C27.558 40.9634 24.6318 41.4563 16.3944 41.2718L12.1004 41.1757L12.199 40.6319C12.2894 40.1318 13.2996 35.288 15.8525 23.1133C16.3944 20.5291 17.0788 17.2554 17.3735 15.8383C17.6681 14.4212 17.9327 13.1837 17.9617 13.0883C18.0382 12.8354 21.504 12.655 26.2203 12.6585C29.9478 12.6612 30.3237 12.6865 31.4459 13.0086C32.1111 13.1994 32.8741 13.4909 33.1414 13.6561L33.6278 13.9566L33.6752 13.3819L33.7227 12.807L38.7092 12.767L43.6958 12.727L43.5998 14.51C43.5471 15.4906 43.4662 17.2137 43.4199 18.3391L43.336 20.3852L44.2582 17.9602C44.7655 16.6264 45.423 14.9044 45.7193 14.1332L46.2579 12.7313H51.2603H56.2626L56.1662 13.1153L56.0698 13.4995L56.6422 13.2087C57.1738 12.9386 58.5259 12.5274 59.4125 12.3661C60.372 12.1915 63.297 12.4139 64.2625 12.7347ZM161.53 13.0712C163.707 13.7207 164.864 14.7655 165.501 16.6575C165.757 17.4165 165.823 17.9847 165.826 19.4524C165.829 20.4656 165.883 21.1922 165.948 21.0672C166.012 20.9422 166.837 19.0155 167.781 16.7855L169.497 12.7313H174.398H179.298L179.299 13.8301C179.3 14.4344 179.365 17.0773 179.443 19.7031C179.521 22.3289 179.658 27.6829 179.746 31.6008C179.835 35.5187 179.937 39.2868 179.974 39.9746L180.042 41.225H175.199H170.356V38.7914V36.3576L169.712 36.4043L169.068 36.4508L168.586 37.6633C168.321 38.3302 167.89 39.4044 167.628 40.0504L167.151 41.225H162.312C158.988 41.225 157.473 41.1744 157.473 41.0634C157.473 40.9746 157.539 40.7799 157.619 40.6307C157.752 40.3813 157.654 40.3881 156.393 40.7156C154.72 41.15 150.747 41.4443 148.228 41.3203C147.269 41.273 140.841 41.2323 133.943 41.2297L121.402 41.225L121.399 39.141C121.397 36.4632 121.366 36.3458 120.674 36.4049L120.138 36.4508L119.149 38.8379L118.162 41.225H102.276C90.64 41.225 86.3906 41.1795 86.3906 41.0551C86.3906 40.9075 88.9905 28.6685 90.7975 20.3094C91.1309 18.7672 91.6283 16.4483 91.903 15.1563L92.4022 12.807L98.3386 12.7673L104.275 12.7278V13.597C104.275 14.075 104.2 15.5727 104.108 16.9251C104.016 18.2777 103.969 19.4658 104.002 19.5654C104.035 19.6649 104.683 18.1851 105.441 16.2768L106.82 12.807L112.671 12.7673C117.869 12.7322 118.522 12.7538 118.522 12.9624C118.522 13.0915 118.355 13.9618 118.15 14.8966C117.054 19.9038 116.683 21.7036 116.734 21.7547C116.765 21.7859 117.673 19.7675 118.75 17.2693L120.71 12.7273L125.717 12.7672L130.723 12.807L130.816 21.1095C130.867 25.6759 130.943 29.4463 130.984 29.488C131.026 29.5298 131.697 28.5901 132.476 27.3996C133.254 26.2091 134.457 24.3699 135.149 23.3123C135.84 22.2548 136.406 21.3511 136.406 21.3041C136.406 21.2572 135.179 21.2188 133.678 21.2188C132.178 21.2188 130.95 21.158 130.95 21.0836C130.95 21.0093 131.318 19.3212 131.767 17.3324C132.217 15.3436 132.631 13.4953 132.688 13.2249L132.792 12.7334L142.973 12.6837C159.063 12.605 160.036 12.6253 161.53 13.0712ZM59.7914 14.3974C56.0198 14.8713 53.2907 17.7361 52.5923 21.9552C52.1257 24.7738 53.5493 27.2541 56.5563 28.8614C58.1053 29.6894 58.8784 30.3592 59.3291 31.2637C60.0168 32.6435 59.723 34.0074 58.5156 35.041C56.4469 36.8117 54.5542 35.5035 55.0026 32.6132C55.2639 30.9289 55.4044 31.0685 53.4637 31.0837C52.526 31.0909 51.4221 31.142 51.0108 31.1973L50.2631 31.2977L49.9039 32.5859C49.4571 34.1883 49.4817 36.059 49.9633 37.1345C50.6034 38.5631 52.0131 39.4645 54.0552 39.7511C56.0214 40.0269 58.9246 39.3446 61.0275 38.1121C62.8302 37.0557 63.9312 35.4456 64.5767 32.9216C65.1078 30.8451 64.8789 29.1697 63.853 27.6241C63.2807 26.7618 62.4172 26.0028 60.0203 24.255C58.1451 22.8875 57.725 22.3794 57.6271 21.3612C57.4358 19.3704 59.1264 17.7693 60.8269 18.3307C61.7892 18.6483 62.0397 19.0885 62.1114 20.5892L62.1752 21.9238L64.6208 21.8562C65.9659 21.8189 67.0908 21.7666 67.1205 21.74C67.1504 21.7133 67.1764 20.852 67.1784 19.8257C67.1828 17.6943 66.975 16.9103 66.1884 16.0905C64.9439 14.7934 62.2707 14.0859 59.7914 14.3974ZM22.6788 14.7125C21.106 14.776 19.7691 14.8848 19.7077 14.9542C19.6463 15.0236 19.1063 17.4335 18.5076 20.3094C17.2596 26.3043 16.4056 30.3752 15.3158 35.521C14.8947 37.5102 14.55 39.1534 14.55 39.1725C14.55 39.1916 15.8574 39.2489 17.4555 39.3C22.1803 39.4508 25.9079 39.049 27.5489 38.2118C29.2835 37.327 30.6152 35.7109 31.2772 33.6875C31.7038 32.3836 33.5382 23.3946 33.7899 21.3743C34.1487 18.495 33.8886 17.0252 32.8333 15.9698C32.0486 15.1852 31.1252 14.8884 28.8727 14.6967C27.0568 14.5423 26.8852 14.5427 22.6788 14.7125ZM152.568 14.7072C150.996 14.7789 149.678 14.8686 149.64 14.9066C149.581 14.9657 148.09 21.9473 146.188 31.0703C145.901 32.4457 145.401 34.8395 145.077 36.3897L144.487 39.2083L147.431 39.303C152.18 39.4558 155.806 39.0483 157.58 38.1624C158.682 37.6116 159.944 36.3536 160.543 35.2086C161.287 33.7848 161.431 33.2375 162.657 27.2055C163.685 22.1427 163.735 21.8006 163.749 19.7031C163.762 17.6751 163.735 17.4486 163.4 16.7684C162.948 15.849 162.065 15.2586 160.678 14.9471C159.332 14.6449 156.062 14.5482 152.568 14.7072ZM37.1477 14.8148L35.7225 14.8651L35.8207 20.7322C35.8748 23.959 35.9638 29.448 36.0187 32.9297L36.1186 39.2603L39.521 39.2195L42.9236 39.1789L48.0609 27.0618C50.8867 20.3974 53.1984 14.9241 53.1984 14.8989C53.1984 14.8737 51.944 14.8531 50.4107 14.8531C47.8968 14.8531 47.6128 14.8792 47.5183 15.1184C47.4607 15.2643 45.9462 19.3053 44.1529 24.0984C42.3594 28.8916 40.8306 32.9156 40.7555 33.0406C40.6698 33.1832 40.6482 32.9007 40.6976 32.2828C40.7409 31.741 40.88 29.0129 41.0071 26.2203C41.1339 23.4278 41.3021 19.8471 41.3808 18.2633C41.4596 16.6795 41.5249 15.2301 41.526 15.0426C41.5283 14.6697 41.4179 14.664 37.1477 14.8148ZM93.9025 15.4215C93.8475 15.7342 93.4942 17.4221 93.1176 19.1727C92.3896 22.5566 91.5404 26.5209 90.4067 31.8281C89.3234 36.8999 88.9707 38.5443 88.8863 38.917L88.8082 39.2614L91.6477 39.2201L94.4872 39.1789L96.2537 30.2698C97.2251 25.3699 98.0643 21.3164 98.1185 21.2623C98.1726 21.2081 98.1828 21.9434 98.1411 22.8964C98.0993 23.8493 98.0282 27.9196 97.9832 31.9418L97.9012 39.2547L99.8377 39.2524L101.774 39.2501L102.939 36.4106C105.804 29.4287 109.233 21.2118 109.316 21.1284C109.367 21.0783 109.373 21.169 109.331 21.33C109.289 21.4911 108.385 25.5901 107.322 30.4388L105.39 39.2547H108.131H110.873L111.219 37.6254C111.409 36.7294 111.865 34.5979 112.232 32.8891C112.598 31.1802 113.144 28.6226 113.446 27.2055C114.069 24.2723 115.203 18.9597 115.66 16.8234C115.83 16.0315 116.002 15.2631 116.044 15.1158C116.114 14.864 115.882 14.8504 112.136 14.8884L108.154 14.9289L104.962 22.9617C103.206 27.3798 101.649 31.2673 101.501 31.6008L101.233 32.207L101.314 30.6914C101.443 28.2781 101.694 23.7815 101.852 21.0672C101.932 19.6918 102.042 17.7308 102.098 16.7098L102.199 14.8531H98.1009H94.0025L93.9025 15.4215ZM121.799 15.3457C121.683 15.6165 120.803 17.6457 119.845 19.8547C113.225 35.1196 111.656 38.755 111.59 38.9895C111.52 39.2348 111.713 39.2547 114.153 39.2547H116.791L117.766 36.8876C118.303 35.5858 118.812 34.4985 118.897 34.4715C118.982 34.4444 120.024 34.3997 121.212 34.3721L123.372 34.3218V36.7894V39.257L132.941 39.2179L142.511 39.1789L143.075 36.9646L143.639 34.7503L142.273 34.6533C141.521 34.5999 139.826 34.5563 138.505 34.5563C137.184 34.5563 136.103 34.5231 136.103 34.4824C136.103 34.4262 142.54 25.1183 146.271 19.7789C146.6 19.3082 146.767 18.766 147.017 17.3539C147.194 16.3536 147.376 15.381 147.422 15.1925L147.504 14.8499L140.943 14.8893L134.382 14.9289L133.959 16.8234C133.726 17.8654 133.534 18.836 133.531 18.9803C133.527 19.2199 133.814 19.2462 136.856 19.2835L140.185 19.3242L137.348 23.6538C135.788 26.035 133.284 29.8668 131.784 32.1688L129.055 36.3544L128.961 34.1292C128.91 32.9053 128.858 28.7325 128.847 24.8563C128.836 20.98 128.783 17.1435 128.729 16.3309L128.631 14.8531H125.321H122.012L121.799 15.3457ZM170.762 14.9668C170.726 15.0292 169.624 17.604 168.313 20.6883C167.002 23.7726 164.735 29.0924 163.274 32.5102C161.814 35.9279 160.586 38.8437 160.544 38.9895C160.475 39.2348 160.668 39.2547 163.114 39.2547H165.758L166.719 36.8297L167.679 34.4047H170.079H172.478V36.8297V39.2547H175.224H177.969L177.871 36.716C177.818 35.3197 177.709 31.4151 177.629 28.0391C177.55 24.663 177.44 20.315 177.384 18.377L177.284 14.8531H174.056C172.281 14.8531 170.799 14.9044 170.762 14.9668ZM27.2632 19.2648C28.3687 19.6502 28.4101 20.5605 27.5031 24.5531C26.9972 26.7809 26.7317 28.0988 26.1351 31.3456C25.7841 33.2561 25.4243 33.932 24.5192 34.381C23.8697 34.7033 21.5854 35.1251 21.4147 34.9543C21.3762 34.9159 21.5257 34.0093 21.7465 32.9395C22.5868 28.871 24.5531 19.2145 24.5531 19.157C24.5531 19.0199 26.819 19.1101 27.2632 19.2648ZM157.239 19.3113C157.521 19.4294 157.826 19.6636 157.916 19.832C158.174 20.3133 158.107 21.4576 157.716 23.2648C157.025 26.4595 156.433 29.3384 156.131 30.9724C155.556 34.0766 154.957 34.7416 152.567 34.9261L151.222 35.0297L151.32 34.6375C151.426 34.2155 153.64 23.4185 154.173 20.7262L154.496 19.0969H155.611C156.229 19.0969 156.954 19.1924 157.239 19.3113ZM124.149 21.6254C124.06 22.7771 123.914 24.9131 123.824 26.3719C123.734 27.8307 123.626 29.246 123.585 29.5168L123.51 30.0094H121.761C120.799 30.0094 120.035 29.9524 120.063 29.8827C120.091 29.813 121.029 27.4266 122.148 24.5797C123.268 21.7325 124.212 19.432 124.247 19.4673C124.283 19.5025 124.239 20.4737 124.149 21.6254ZM172.932 24.5777C172.752 27.3567 172.578 29.7158 172.546 29.8199C172.457 30.1093 169.144 30.0883 169.144 29.7984C169.144 29.6823 169.884 27.7215 170.789 25.441C171.694 23.1604 172.596 20.8721 172.793 20.3558C172.991 19.8395 173.176 19.4414 173.206 19.4709C173.235 19.5005 173.112 21.7986 172.932 24.5777ZM142.662 28.5413L139.905 32.5102L141.814 32.5527C142.864 32.5761 143.745 32.5728 143.772 32.5453C143.829 32.4889 145.477 24.6445 145.441 24.6007C145.429 24.5853 144.178 26.3585 142.662 28.5413ZM50.3427 26.8645C50.0902 27.4689 49.776 28.2191 49.6444 28.5316L49.4053 29.1H51.3159H53.2265L52.5608 28.3596C52.1948 27.9524 51.673 27.2021 51.4012 26.6924C51.1295 26.1827 50.8835 25.7656 50.8545 25.7656C50.8254 25.7656 50.5952 26.26 50.3427 26.8645ZM84.6266 30.9566C84.2725 33.0614 83.9791 34.8007 83.9743 34.8215C83.9696 34.8423 81.0329 34.8594 77.4484 34.8594C72.7597 34.8594 70.9313 34.8119 70.9313 34.6905C70.9313 34.5317 72.3782 28.1123 72.5404 27.5516C72.6301 27.2412 73.2693 27.2099 80.4879 27.1617L85.2701 27.1297L84.6266 30.9566ZM77.5303 29.247L74.202 29.3273L74.1001 29.782C74.044 30.0321 73.8613 30.8336 73.6938 31.5629L73.3891 32.8891H77.7591C80.4407 32.8891 82.1643 32.8318 82.2205 32.741C82.2709 32.6594 82.4113 31.9604 82.5326 31.1875C82.654 30.4145 82.7886 29.6287 82.8318 29.441C82.908 29.1109 82.8779 29.1011 81.8845 29.1333C81.3203 29.1518 79.3609 29.2029 77.5303 29.247Z" fill="#14141B"/>
</svg>
