<svg width="48" height="33" viewBox="0 0 48 33" fill="none" xmlns="http://www.w3.org/2000/svg">
<path d="M35 1C33.855 2.6 26.272 6.37109 23 6.37109C23 11.6971 23 15.416 23 20C23 25.447 34.346 31.6452 35 31.8142C35.654 31.6442 47 25.447 47 20C47 15.416 47 11.6971 47 6.37109C43.728 6.37109 36.145 2.6 35 1Z" stroke="#BC2D52" stroke-width="2" stroke-miterlimit="10" stroke-linejoin="round"/>
<path d="M35 6C34.2367 7.09041 29.1813 9.66042 27 9.66042C27 13.2901 27 15.8246 27 18.9486C27 22.6607 34.564 26.8848 35 27C35.436 26.8841 43 22.6607 43 18.9486C43 15.8246 43 13.2901 43 9.66042C40.8187 9.66042 35.7633 7.09041 35 6Z" stroke="#BC2D52" stroke-width="2" stroke-miterlimit="10" stroke-linejoin="round"/>
<path d="M21 24H7C5.344 24 4 22.658 4 21V15.8162C4 14.6322 4.35106 13.474 5.00806 12.488L6 11L2 10C1.447 10 1 9.553 1 9V7C1 6.447 1.447 6 2 6H7L9 9L12 10H21" stroke="#BC2D52" stroke-width="2" stroke-miterlimit="10" stroke-linejoin="round"/>
<path d="M7 14L9 16H14" stroke="#BC2D52" stroke-width="2" stroke-miterlimit="10" stroke-linejoin="round"/>
<path d="M5 23V27C5 27.553 5.447 28 6 28H13C13.553 28 14 27.553 14 27V26" stroke="#BC2D52" stroke-width="2" stroke-miterlimit="10" stroke-linejoin="round"/>
<path d="M30 1C30 1 14.643 1 13 1C12.3 1 11.459 1.455 11 2C10.541 2.545 8 8 8 8" stroke="#BC2D52" stroke-width="2" stroke-miterlimit="10" stroke-linejoin="round"/>
<path d="M14 20H21" stroke="#BC2D52" stroke-width="2" stroke-miterlimit="10" stroke-linejoin="round"/>
</svg>
