<svg width="42" height="48" viewBox="0 0 42 48" fill="none" xmlns="http://www.w3.org/2000/svg">
<path d="M20.9448 19V1" stroke="#BC2D52" stroke-width="2" stroke-miterlimit="10" stroke-linecap="round" stroke-linejoin="round"/>
<path d="M18.0498 6L20.9978 8L24.0498 6" stroke="#BC2D52" stroke-width="2" stroke-miterlimit="10" stroke-linecap="round" stroke-linejoin="round"/>
<path d="M16.0498 10L20.9978 14L26.0498 10" stroke="#BC2D52" stroke-width="2" stroke-miterlimit="10" stroke-linecap="round" stroke-linejoin="round"/>
<path d="M16.6409 21.455L1.052 12.455" stroke="#BC2D52" stroke-width="2" stroke-miterlimit="10" stroke-linecap="round" stroke-linejoin="round"/>
<path d="M3.90894 17.507L7.11499 15.955L6.90894 12.311" stroke="#BC2D52" stroke-width="2" stroke-miterlimit="10" stroke-linecap="round" stroke-linejoin="round"/>
<path d="M6.3728 21.24L12.3108 18.955L11.3728 12.578" stroke="#BC2D52" stroke-width="2" stroke-miterlimit="10" stroke-linecap="round" stroke-linejoin="round"/>
<path d="M16.5879 26.455L1 35.455" stroke="#BC2D52" stroke-width="2" stroke-miterlimit="10" stroke-linecap="round" stroke-linejoin="round"/>
<path d="M6.80396 35.507L7.06201 31.955L3.80396 30.311" stroke="#BC2D52" stroke-width="2" stroke-miterlimit="10" stroke-linecap="round" stroke-linejoin="round"/>
<path d="M11.2678 35.24L12.2578 28.955L6.26782 26.578" stroke="#BC2D52" stroke-width="2" stroke-miterlimit="10" stroke-linecap="round" stroke-linejoin="round"/>
<path d="M20.9448 29V47" stroke="#BC2D52" stroke-width="2" stroke-miterlimit="10" stroke-linecap="round" stroke-linejoin="round"/>
<path d="M23.8389 42L20.8918 40L17.8389 42" stroke="#BC2D52" stroke-width="2" stroke-miterlimit="10" stroke-linecap="round" stroke-linejoin="round"/>
<path d="M25.8389 38L20.8918 34L15.8389 38" stroke="#BC2D52" stroke-width="2" stroke-miterlimit="10" stroke-linecap="round" stroke-linejoin="round"/>
<path d="M25.249 26.545L40.8379 35.545" stroke="#BC2D52" stroke-width="2" stroke-miterlimit="10" stroke-linecap="round" stroke-linejoin="round"/>
<path d="M37.981 30.494L34.7749 32.045L34.981 35.6901" stroke="#BC2D52" stroke-width="2" stroke-miterlimit="10" stroke-linecap="round" stroke-linejoin="round"/>
<path d="M35.5168 26.761L29.5789 29.045L30.5168 35.422" stroke="#BC2D52" stroke-width="2" stroke-miterlimit="10" stroke-linecap="round" stroke-linejoin="round"/>
<path d="M25.3008 21.545L40.8899 12.545" stroke="#BC2D52" stroke-width="2" stroke-miterlimit="10" stroke-linecap="round" stroke-linejoin="round"/>
<path d="M35.0859 12.494L34.8279 16.045L38.0859 17.6901" stroke="#BC2D52" stroke-width="2" stroke-miterlimit="10" stroke-linecap="round" stroke-linejoin="round"/>
<path d="M30.6218 12.761L29.6309 19.045L35.6218 21.422" stroke="#BC2D52" stroke-width="2" stroke-miterlimit="10" stroke-linecap="round" stroke-linejoin="round"/>
</svg>
