<svg width="48" height="33" viewBox="0 0 48 33" fill="none" xmlns="http://www.w3.org/2000/svg">
<path d="M7 14L9 16H14" stroke="#BC2D52" stroke-width="2" stroke-miterlimit="10"/>
<path d="M5 23V27C5 27.553 5.447 28 6 28H13C13.553 28 14 27.553 14 27V24" stroke="#BC2D52" stroke-width="2" stroke-miterlimit="10" stroke-linejoin="round"/>
<path d="M32 10H23H12L9 9L7 6H2C1.447 6 1 6.447 1 7V9C1 9.553 1.447 10 2 10L6 11L5.00806 12.488C4.35106 13.474 4 14.6329 4 15.8159V21C4 22.656 5.343 24 7 24H23H32" stroke="#BC2D52" stroke-width="2" stroke-miterlimit="10" stroke-linejoin="round"/>
<path d="M36.083 4C35.597 3.021 35.165 2.195 35 2C34.54 1.455 33.7 1 33 1C31.437 1 15.125 1 13 1C12.3 1 11.46 1.455 11 2C10.54 2.545 8 8 8 8" stroke="#BC2D52" stroke-width="2" stroke-miterlimit="10"/>
<path d="M14 20H25" stroke="#BC2D52" stroke-width="2" stroke-miterlimit="10"/>
<path d="M39 14L41 2L28 20L36 19L32.9841 31.2048L47 13L39 14Z" stroke="#BC2D52" stroke-width="2" stroke-miterlimit="10" stroke-linejoin="round"/>
</svg>
