<svg width="43" height="47" viewBox="0 0 43 47" fill="none" xmlns="http://www.w3.org/2000/svg">
<path d="M38.4968 46C40.4287 46 41.9949 44.4338 41.9949 42.502C41.9949 40.5701 40.4287 39.0039 38.4968 39.0039C36.5649 39.0039 34.9988 40.5701 34.9988 42.502C34.9988 44.4338 36.5649 46 38.4968 46Z" stroke="#BC2D52" stroke-width="2" stroke-miterlimit="10" stroke-linejoin="round"/>
<path d="M16 22.999C16 24.656 14.656 25.999 13 25.999H12C10.344 25.999 9 24.656 9 22.999V15.999C9 14.342 10.344 12.999 12 12.999H13C14.656 12.999 16 14.342 16 15.999" stroke="#BC2D52" stroke-width="2" stroke-miterlimit="10"/>
<path d="M27 22.999C27 24.656 25.657 25.999 24 25.999H22C20.344 25.999 19 24.656 19 22.999V15.999C19 14.342 20.344 12.999 22 12.999H24C25.657 12.999 27 14.342 27 15.999V22.999Z" stroke="#BC2D52" stroke-width="2" stroke-miterlimit="10"/>
<path d="M35 27.999V29.999H30V28.999C32.417 26.645 33.648 26.232 34.354 25.353C34.885 24.69 35.2499 22.438 33.5449 21.843C32.1519 21.358 30.4088 21.748 29.9658 23.648" stroke="#BC2D52" stroke-width="2" stroke-miterlimit="10" stroke-linejoin="round"/>
<path d="M36.1379 16.276C36.6929 14.962 37 13.516 37 12C37 5.925 32.075 1 26 1C22.375 1 19.1678 2.76192 17.1638 5.46692C16.1618 5.16592 15.101 5 14 5C7.925 5 3 9.925 3 16C3 16.424 3.02893 16.841 3.07593 17.252C1.77993 18.812 1 20.815 1 23C1 27.971 5.029 32 10 32C10.174 32 10.3429 31.983 10.5139 31.974C11.7429 35.481 15.074 38 19 38C21.463 38 23.6929 37.009 25.3179 35.406C26.9769 36.411 28.918 37 31 37C37.075 37 42 32.075 42 26C42 21.781 39.6229 18.121 36.1379 16.276Z" stroke="#BC2D52" stroke-width="2" stroke-miterlimit="10"/>
<path d="M15.8398 7.77502C16.1858 6.94702 16.6278 6.17096 17.1538 5.45996" stroke="#BC2D52" stroke-width="2" stroke-miterlimit="10" stroke-linejoin="round"/>
<path d="M26.9138 33.2889C26.4978 34.0539 25.975 34.7519 25.364 35.3629" stroke="#BC2D52" stroke-width="2" stroke-miterlimit="10" stroke-linejoin="round"/>
</svg>
