<svg width="48" height="36" viewBox="0 0 48 36" fill="none" xmlns="http://www.w3.org/2000/svg">
<path d="M20 23H7C5.344 23 4 21.657 4 20V15C4 14.5 4.05897 13.9119 4.16797 13.7479L5.21289 12.1809C5.59689 11.6059 5.2948 10.824 4.6228 10.657L2 10.001C1.447 10.001 1 9.55398 1 9.00098V7.00098C1 6.44798 1.447 6.00098 2 6.00098H6.46484C6.79884 6.00098 7.11087 6.16792 7.29688 6.44592L8.6189 8.42896C8.8119 8.69496 10.765 10 12 10C12.691 10 21 10 21 10" stroke="#BC2D52" stroke-width="2" stroke-miterlimit="10"/>
<path d="M33.864 7.70593C33.864 7.70593 32.3718 3.88093 32.0908 3.22693C31.7028 2.32593 30.8958 2.04291 29.8838 1.83191C27.8958 1.41491 25.437 1 21.001 1C16.565 1 14.1059 1.41491 12.1179 1.83191C11.1059 2.04291 10.2989 2.32493 9.91089 3.22693C9.62989 3.88093 8.13794 7.70593 8.13794 7.70593" stroke="#BC2D52" stroke-width="2" stroke-miterlimit="10"/>
<path d="M7 14C8.281 15.28 10.0179 16 11.8279 16H14" stroke="#BC2D52" stroke-width="2" stroke-miterlimit="10"/>
<path d="M5 22V26C5 26.553 5.447 27 6 27H13C13.553 27 14 26.553 14 26V23" stroke="#BC2D52" stroke-width="2" stroke-miterlimit="10"/>
<path d="M21 19H14" stroke="#BC2D52" stroke-width="2" stroke-miterlimit="10"/>
<path d="M38 15C38 14.5 37.9408 13.9119 37.8318 13.7479L36.7869 12.1809C36.4029 11.6059 36.705 10.824 37.377 10.657L40 10.001C40.553 10.001 41 9.55398 41 9.00098V7.00098C41 6.44798 40.553 6.00098 40 6.00098H35.5349C35.2009 6.00098 34.8889 6.16792 34.7029 6.44592L33.3809 8.42896C33.1879 8.69496 31.235 10 30 10C29.309 10 21 10 21 10" stroke="#BC2D52" stroke-width="2" stroke-miterlimit="10"/>
<path d="M35 14C33.719 15.28 31.9819 16 30.1719 16H28" stroke="#BC2D52" stroke-width="2" stroke-miterlimit="10"/>
<path d="M21 19H28" stroke="#BC2D52" stroke-width="2" stroke-miterlimit="10"/>
<path d="M43 14L30 26.875L25 21.875L21 25.875L29.834 35L47 18L43 14Z" stroke="#BC2D52" stroke-width="2" stroke-miterlimit="10" stroke-linejoin="round"/>
</svg>
