<svg width="47" height="46" viewBox="0 0 47 46" fill="none" xmlns="http://www.w3.org/2000/svg">
<path d="M46.0049 41.999C45.5259 42.001 45.0468 42.202 44.6418 42.603L42.8369 44.3931C42.0169 45.2061 40.8939 45.199 40.0789 44.374L38.3499 42.6219C37.9519 42.2189 37.4789 42.01 37.0039 41.998C36.5239 42 36.0449 42.2011 35.6409 42.6021L33.835 44.392C33.015 45.205 31.8919 45.198 31.0779 44.373L29.3489 42.621C28.9509 42.218 28.4779 42.0089 28.0029 41.9969C27.5229 41.9989 27.0439 42.2 26.6399 42.601L24.834 44.391C24.014 45.204 22.8919 45.1969 22.0769 44.3719L20.3479 42.62C19.9499 42.217 19.477 42.008 19.002 41.996C18.522 41.998 18.0429 42.199 17.6389 42.6L15.833 44.39C15.013 45.203 13.8909 45.196 13.0759 44.371L11.3469 42.619C10.9489 42.216 10.476 42.007 10.001 41.995C9.52198 41.997 9.04194 42.198 8.63794 42.599L6.83301 44.389C6.01301 45.202 4.88995 45.195 4.07495 44.37L2.34595 42.618C1.94795 42.215 1.475 42.006 1 41.994" stroke="#BC2D52" stroke-width="2" stroke-miterlimit="10" stroke-linecap="round"/>
<path d="M13.999 36.936C13.673 36.845 13.3579 36.659 13.0789 36.375L11.3499 34.624C10.9519 34.221 10.4789 34.012 10.0039 34C9.52491 34.002 9.04487 34.203 8.64087 34.604L6.83594 36.394C6.01594 37.207 4.893 37.2 4.078 36.374L2.349 34.623C1.951 34.22 1.47793 34.011 1.00293 33.999" stroke="#BC2D52" stroke-width="2" stroke-miterlimit="10" stroke-linecap="round"/>
<path d="M46.0049 34C45.5259 34.002 45.0468 34.203 44.6418 34.604L42.8369 36.394C42.0169 37.207 40.8939 37.2 40.0789 36.374L38.3499 34.623C37.9519 34.22 37.4789 34.011 37.0039 33.999C36.5239 34.001 36.0449 34.202 35.6409 34.603L33.835 36.3931C33.299 36.9251 32.6321 37.106 32.0081 36.936" stroke="#BC2D52" stroke-width="2" stroke-miterlimit="10" stroke-linecap="round"/>
<path d="M26.0049 27.8101V4C26.0049 2.343 24.6609 1 23.0049 1C21.3489 1 20.0049 2.343 20.0049 4V27.8101C18.2139 28.8471 17.0049 30.781 17.0049 33C17.0049 36.313 19.6919 39 23.0049 39C26.3179 39 29.0049 36.313 29.0049 33C29.0049 30.781 27.7959 28.8471 26.0049 27.8101Z" stroke="#BC2D52" stroke-width="2" stroke-miterlimit="10" stroke-linejoin="round"/>
<path d="M24.0049 7H29.0049" stroke="#BC2D52" stroke-width="2" stroke-miterlimit="10" stroke-linejoin="round"/>
<path d="M24.0049 12H29.0049" stroke="#BC2D52" stroke-width="2" stroke-miterlimit="10" stroke-linejoin="round"/>
<path d="M24.0049 17H29.0049" stroke="#BC2D52" stroke-width="2" stroke-miterlimit="10" stroke-linejoin="round"/>
<path d="M24.0049 22H29.0049" stroke="#BC2D52" stroke-width="2" stroke-miterlimit="10" stroke-linejoin="round"/>
</svg>
